<?xml version="1.0" encoding="UTF-8" standalone="no"?>
<!-- Created with Inkscape (http://www.inkscape.org/) -->

<svg
   xmlns:dc="http://purl.org/dc/elements/1.1/"
   xmlns:cc="http://creativecommons.org/ns#"
   xmlns:rdf="http://www.w3.org/1999/02/22-rdf-syntax-ns#"
   xmlns:svg="http://www.w3.org/2000/svg"
   xmlns="http://www.w3.org/2000/svg"
   xmlns:xlink="http://www.w3.org/1999/xlink"
   xmlns:sodipodi="http://sodipodi.sourceforge.net/DTD/sodipodi-0.dtd"
   xmlns:inkscape="http://www.inkscape.org/namespaces/inkscape"
   height="110"
   width="110"
   version="1.1"
   id="svg1190"
   sodipodi:docname="directory.svg"
   style="enable-background:new"
   inkscape:version="0.92.5 (2060ec1f9f, 2020-04-08)">
  <metadata
     id="metadata1194">
    <rdf:RDF>
      <cc:Work
         rdf:about="">
        <dc:format>image/svg+xml</dc:format>
        <dc:type
           rdf:resource="http://purl.org/dc/dcmitype/StillImage" />
        <dc:title></dc:title>
      </cc:Work>
    </rdf:RDF>
  </metadata>
  <sodipodi:namedview
     pagecolor="#ffffff"
     bordercolor="#666666"
     borderopacity="1"
     objecttolerance="10"
     gridtolerance="10"
     guidetolerance="10"
     inkscape:pageopacity="0"
     inkscape:pageshadow="2"
     inkscape:window-width="1920"
     inkscape:window-height="1020"
     id="namedview1192"
     showgrid="false"
     inkscape:zoom="1.84375"
     inkscape:cx="58.576271"
     inkscape:cy="55.864407"
     inkscape:window-x="0"
     inkscape:window-y="0"
     inkscape:window-maximized="1"
     inkscape:current-layer="g1188" />
  <defs
     id="defs1128">
    <linearGradient
       id="linearGradient4716">
      <stop
         offset="0"
         stop-color="#102134"
         id="stop1037" />
      <stop
         offset="1"
         stop-color="#102134"
         stop-opacity="0"
         id="stop1039" />
    </linearGradient>
    <linearGradient
       id="linearGradient4683">
      <stop
         offset="0"
         stop-color="#dbeef2"
         id="stop1042" />
      <stop
         offset="1"
         stop-color="#dbeef2"
         stop-opacity="0"
         id="stop1044" />
    </linearGradient>
    <pattern
       id="pattern5626"
       patternTransform="matrix(0.19995704,0,0,0.21727492,1.9787736,-215.37291)"
       xlink:href="#sand_bitmap" />
    <pattern
       id="pattern5614"
       patternTransform="matrix(0.07445831,0.30194899,-0.27788216,0.08090699,1.9787736,-215.37291)"
       xlink:href="#sand_bitmap" />
    <pattern
       id="sand_bitmap"
       height="256"
       patternUnits="userSpaceOnUse"
       width="256" />
    <linearGradient
       id="linearGradient3819"
       gradientUnits="userSpaceOnUse"
       x1="12.5"
       x2="12.5"
       y1="967.36218"
       y2="932.36218">
      <stop
         offset="0"
         stop-color="#1a5187"
         id="stop1050" />
      <stop
         offset="1"
         stop-color="#619de6"
         id="stop1052" />
    </linearGradient>
    <clipPath
       id="clipPath3834">
      <rect
         height="31.5"
         rx="4"
         width="116.00004"
         x="6"
         y="941.36218"
         id="rect1055" />
    </clipPath>
    <filter
       id="filter4584"
       height="1.697208"
       width="1.0278879"
       x="-0.013944"
       y="-0.34860399"
       style="color-interpolation-filters:sRGB">
      <feGaussianBlur
         stdDeviation=".70882694"
         id="feGaussianBlur1058" />
    </filter>
    <filter
       id="filter5616"
       style="color-interpolation-filters:sRGB">
      <feBlend
         in="SourceGraphic"
         in2="BackgroundImage"
         mode="lighten"
         id="feBlend1061" />
    </filter>
    <linearGradient
       id="linearGradient4582"
       gradientUnits="userSpaceOnUse"
       x1="12.5"
       x2="12.5"
       y1="987.36218"
       y2="937.36218">
      <stop
         offset="0"
         stop-color="#1a5187"
         id="stop1064" />
      <stop
         offset="1"
         stop-color="#679ee0"
         id="stop1066" />
    </linearGradient>
    <linearGradient
       id="linearGradient4584"
       gradientUnits="userSpaceOnUse"
       x1="79"
       x2="79"
       y1="924.36218"
       y2="1052.3622">
      <stop
         offset="0"
         stop-color="#aec7e7"
         stop-opacity="0"
         id="stop1069" />
      <stop
         offset=".04545457"
         stop-color="#abc5e6"
         stop-opacity=".498039"
         id="stop1071" />
      <stop
         offset=".13402523"
         stop-color="#d6e3f3"
         id="stop1073" />
      <stop
         offset=".92923617"
         stop-color="#80a7d9"
         id="stop1075" />
      <stop
         offset="1"
         stop-color="#b5cce9"
         id="stop1077" />
    </linearGradient>
    <linearGradient
       id="linearGradient4614"
       gradientUnits="userSpaceOnUse"
       x1="3"
       x2="3"
       y1="968.26129"
       y2="953.01678">
      <stop
         offset="0"
         stop-color="#34608f"
         id="stop1080" />
      <stop
         offset="1"
         stop-color="#34608f"
         stop-opacity="0"
         id="stop1082" />
    </linearGradient>
    <linearGradient
       id="linearGradient4622"
       gradientUnits="userSpaceOnUse"
       x1="124.01234"
       x2="124.01234"
       y1="966.51019"
       y2="935.34326">
      <stop
         offset="0"
         id="stop1085" />
      <stop
         offset="1"
         stop-color="#34608f"
         stop-opacity="0"
         id="stop1087" />
    </linearGradient>
    <linearGradient
       id="linearGradient4630"
       gradientUnits="userSpaceOnUse"
       x1="55"
       x2="55"
       y1="1036.4132"
       y2="1032.4822">
      <stop
         offset="0"
         stop-color="#003d7b"
         id="stop1090" />
      <stop
         offset="1"
         stop-color="#003d7b"
         stop-opacity="0"
         id="stop1092" />
    </linearGradient>
    <radialGradient
       id="radialGradient4689"
       cx="46.999996"
       cy="953.36218"
       gradientUnits="userSpaceOnUse"
       r="3.9999998"
       xlink:href="#linearGradient4683" />
    <filter
       id="filter4720"
       height="3.513967"
       width="1.083106"
       x="-0.041553002"
       y="-1.256983">
      <feGaussianBlur
         stdDeviation="2.0949721"
         id="feGaussianBlur1096" />
    </filter>
    <filter
       id="filter4724"
       height="1.869989"
       width="1.027669"
       x="-0.013834"
       y="-0.43499401">
      <feGaussianBlur
         stdDeviation=".70324038"
         id="feGaussianBlur1099" />
    </filter>
    <linearGradient
       id="linearGradient4640"
       gradientUnits="userSpaceOnUse"
       x1="83.801331"
       x2="83.801331"
       y1="0"
       y2="21.12537">
      <stop
         offset="0"
         stop-color="#fff"
         id="stop1102" />
      <stop
         offset="1"
         stop-color="#fff"
         stop-opacity="0"
         id="stop1104" />
    </linearGradient>
    <radialGradient
       id="radialGradient4644"
       cx="75.950432"
       cy="28.88085"
       fx="117.18725"
       fy="39.988396"
       gradientTransform="matrix(0.99136537,-0.082029,0.03047675,0.36832818,0.285067,10.731594)"
       gradientUnits="userSpaceOnUse"
       r="57.906349">
      <stop
         offset="0"
         stop-color="#fff"
         stop-opacity=".6"
         id="stop1107" />
      <stop
         offset="1"
         stop-color="#fff"
         stop-opacity="0"
         id="stop1109" />
    </radialGradient>
    <linearGradient
       id="linearGradient4657"
       gradientUnits="userSpaceOnUse"
       x1="7.4737158"
       x2="10"
       xlink:href="#linearGradient4716"
       y1="945.36218"
       y2="935.93396" />
    <linearGradient
       id="linearGradient4661"
       gradientTransform="matrix(-1,0,0,1,128,7)"
       gradientUnits="userSpaceOnUse"
       x1="7.7416649"
       x2="10"
       xlink:href="#linearGradient4716"
       y1="944.36218"
       y2="935.93396" />
    <radialGradient
       id="radialGradient4675"
       cx="47"
       cy="27.000002"
       fx="48.649815"
       fy="26.04748"
       gradientTransform="matrix(0.59281195,-6.6e-7,6.6e-7,0.59281178,-21.112186,920.10632)"
       gradientUnits="userSpaceOnUse"
       r="3.5"
       xlink:href="#linearGradient4683" />
    <filter
       id="filter4697">
      <feGaussianBlur
         stdDeviation=".1005596"
         id="feGaussianBlur1115" />
    </filter>
    <radialGradient
       id="radialGradient4705"
       cx="47"
       cy="27.000002"
       fx="48.649815"
       fy="26.04748"
       gradientTransform="matrix(0.59281195,-6.6e-7,6.6e-7,0.59281178,-23.112186,920.10632)"
       gradientUnits="userSpaceOnUse"
       r="3.5"
       xlink:href="#linearGradient4683" />
    <linearGradient
       id="linearGradient4722"
       gradientUnits="userSpaceOnUse"
       x1="79.839294"
       x2="79.839294"
       xlink:href="#linearGradient4716"
       y1="11.784386"
       y2="27.853235" />
    <filter
       id="filter4747"
       height="1.267833"
       width="1.129187"
       x="-0.064594001"
       y="-0.133917">
      <feGaussianBlur
         stdDeviation="3.1247207"
         id="feGaussianBlur1120" />
    </filter>
    <linearGradient
       id="linearGradient3860"
       gradientUnits="userSpaceOnUse"
       x1="125"
       x2="125"
       y1="1008.4331"
       y2="1010.0434">
      <stop
         offset="0"
         stop-color="#00438a"
         id="stop1123" />
      <stop
         offset="1"
         stop-color="#00438a"
         stop-opacity="0"
         id="stop1125" />
    </linearGradient>
    <radialGradient
       inkscape:collect="always"
       xlink:href="#linearGradient4683"
       id="radialGradient1739"
       gradientUnits="userSpaceOnUse"
       gradientTransform="matrix(0.59281195,-6.6e-7,6.6e-7,0.59281178,-21.112186,920.10632)"
       cx="47"
       cy="27.000002"
       fx="48.649815"
       fy="26.04748"
       r="3.5" />
  </defs>
  <g
     transform="matrix(0.8867931,0,0,0.81611128,-1.7547626,-748.59392)"
     id="g1188"
     style="stroke-width:1.17547703">
    <path
       d="m 7,108.12 h 114.00003 c 2.216,0 4,0.86524 4,1.94 0,1.07476 -1.78433,1.90204 -4,1.94 C 84.054842,112.63289 46.296959,112.77817 7,112 c -2.2155656,-0.0439 -4,-0.86524 -4,-1.94 0,-1.07476 1.784,-1.94 4,-1.94 z"
       transform="translate(0,924.36218)"
       id="path1130"
       inkscape:connector-curvature="0"
       style="opacity:0.55428598;stroke-width:1.17547703;filter:url(#filter4724)" />
    <path
       d="m 9,935.36218 c -1.7327594,0 -3,1.19218 -3,3 v 3 62.66352 23.7338 c 0,2.5513 2.0595923,4.6027 4.620974,4.6027 H 117.37903 c 2.56138,0 4.62097,-2.0514 4.62097,-4.6027 v -81.79458 c 0,-2.55128 -2.05959,-4.60274 -4.62097,-4.60274 H 100.30971 41.034785 l -0.03478,-3 c -0.01799,-1.55145 -1.399823,-3 -3,-3 z"
       id="path1132"
       inkscape:connector-curvature="0"
       style="fill:url(#linearGradient3819);stroke-width:1.17547703" />
    <path
       d="m 9,935.36218 c -1.7327594,0 -3,1.19218 -3,3 v 3 62.66352 23.7338 c 0,2.5513 2.0595923,4.6027 4.620974,4.6027 H 117.37903 c 2.56138,0 4.62097,-2.0514 4.62097,-4.6027 v -81.79458 c 0,-2.55128 -2.05959,-4.60274 -4.62097,-4.60274 H 100.30971 41 v -3 c 0,-1.55155 -1.399823,-3 -3,-3 z"
       id="path1134"
       inkscape:connector-curvature="0"
       style="fill:url(#linearGradient4582);stroke-width:1.17547703" />
    <path
       d="m 9,935.36218 c -1.7327594,0 -3,1.19218 -3,3 v 3 62.66352 23.7338 c 0,2.5513 2.0595923,4.6027 4.620974,4.6027 H 117.37903 c 2.56138,0 4.62097,-2.0514 4.62097,-4.6027 v -81.79458 c 0,-2.55128 -2.05959,-4.60274 -4.62097,-4.60274 H 100.30971 40.034785 l -0.03478,-3 c -0.01799,-1.55145 -1.399823,-3 -3,-3 z"
       id="path1136"
       inkscape:connector-curvature="0"
       style="opacity:0.18285702;fill:#00ffff;stroke-width:1.17547703;filter:url(#filter5616)" />
    <path
       d="m 8.5,12.09375 c -1.2263633,0 -2.40625,1.11436 -2.40625,2.40625 V 17 79.65625 103.375 c 0,1.956 2.5657478,3.53125 4.53125,3.53125 h 106.75 c 1.9655,0 3.50719,-1.57539 3.53125,-3.53125 l 1,-81.28125 c 0.0241,-1.955803 -2.05678,-4 -4.03125,-4 H 99.3125 41.03125 C 40.460042,18.088403 39.942847,17.571208 39.9375,17 L 39.90625,15 C 39.895768,14.096 39.817787,12.09375 38,12.09375 Z m 0,0.75 H 38 c 1.173368,0 1.15625,0.95608 1.15625,2.1875 l 0.03125,2 c 0.01554,0.955104 0.888519,1.813284 1.84375,1.8125 H 99.3125 117.875 c 1.582,0 3.30041,1.692278 3.28125,3.25 l -1,81.28125 c -0.0192,1.55778 -1.21422,2.78125 -2.78125,2.78125 H 9.625 c -1.5670292,0 -2.846874,-1.22473 -2.78125,-2.78125 V 79.65625 17 14.5 c 0,-0.94688 0.7685209,-1.65625 1.65625,-1.65625 z"
       transform="translate(0,924.36218)"
       id="path1138"
       inkscape:connector-curvature="0"
       style="opacity:0.548571;fill:url(#linearGradient4640);stroke-width:1.17547703" />
    <path
       d="m 118,941.36218 c 1.662,0 4,2.338 4,4 v 25 c 0,1.662 -1.338,3 -3,3 h -1 c 1.662,0 3,-1.338 3,-3 v -25 c 0,-1.662 -2.338,-4 -4,-4 z"
       id="path1140"
       inkscape:connector-curvature="0"
       style="opacity:0.485714;fill:url(#linearGradient4661);stroke-width:1.17547703" />
    <path
       clip-path="url(#clipPath3834)"
       d="m 45.034785,954.60306 c 0,2.54081 -2.059592,4.58387 -4.620974,4.58387 H 5.9 v 47.17527 H 122 v -51.41613 c 0,-2.54081 -2.05959,-4.58387 -4.62097,-4.58387 H 49.498583 c -3.2463,0 -4.463798,1.6788 -4.463798,4.24086 z"
       id="path1142"
       inkscape:connector-curvature="0"
       style="fill:#16375b;fill-opacity:0.80147101;stroke-width:1.17547703;filter:url(#filter4747)" />
    <path
       d="m 9,935.36218 c -1.662,0 -3,1.338 -3,3 v 25 c 0,1.662 1.338,3 3,3 h 1 c -1.662,0 -3,-1.338 -3,-3 v -25 c 0,-1.662 1.338,-3 3,-3 z"
       id="path1144"
       inkscape:connector-curvature="0"
       style="opacity:0.485714;fill:url(#linearGradient4657);stroke-width:1.17547703" />
    <path
       d="m 50.498583,952.3622 c -3.2463,0 -4.463798,1.6849 -4.463798,4.25626 0,2.55004 -2.059592,4.74372 -4.620974,4.74372 H 5.015625 C 3.8545593,961.36218 3,962.14471 3,963.3778 v 0.65781 58.55779 9.7599 c 0,1.7783 1.279911,3.0089 2.9883106,3.0089 H 121.96875 c 2.13197,0 3.03125,-1.3568 3.03125,-2.9688 v -9.8 -58.55779 -7.0729 c 0,-2.55004 -2.05959,-4.60051 -4.62097,-4.60051 z"
       id="path1146"
       inkscape:connector-curvature="0"
       style="fill:#6193cf;stroke-width:1.17547703" />
    <path
       d="m 46.034785,956.60306 c 0,2.54081 -2.059592,4.75912 -4.620974,4.75912 H 5.0160387 C 3.7504382,961.36218 3,962.24237 3,963.36638 v 69.99582 c -0.3599412,0.4799 1.0672851,2 4,2 h 115 c 2.12179,0 3,-1.6142 3,-2 v -76.41613 c 0,-2.54081 -2.05959,-4.58387 -4.62097,-4.58387 H 50.498583 c -3.2463,0 -4.463798,1.6788 -4.463798,4.24086 z"
       id="path1148"
       inkscape:connector-curvature="0"
       style="opacity:0.462857;fill:url(#linearGradient4584);stroke-width:1.17547703" />
    <g
       transform="translate(-81)"
       id="g1150"
       style="opacity:0.72000002;stroke-width:1.17547703" />
    <path
       d="m 49.982496,952.36218 c -2.783273,0.17617 -3.950256,1.98395 -3.982496,4.56708 -0.02977,2.38488 -2.198248,4.43292 -4.49375,4.43292 H 4.9884174 c -1.1670959,0 -1.9884174,0.86162 -1.9884174,2 0,-0.73974 0.9157928,-1 1.9994659,-1 H 41.50625 c 2.827262,0 5.49375,-2.40068 5.49375,-5.43292 0,-2.44199 1.120505,-3.54124 2.982496,-3.56708 H 120.375 c 2.2955,0 4.619,1.72939 4.619,4 H 125 c 0,-2.81101 -1.79737,-5 -4.62463,-5 z"
       id="path1152"
       inkscape:connector-curvature="0"
       style="opacity:0.56571398;fill:#d5f2f8;fill-opacity:0.727941;stroke-width:1.17547703" />
    <rect
       height="4.3919902"
       rx="2.7514815"
       ry="2.6908035"
       transform="matrix(1,0,0,2.049182,0,-1088.3817)"
       width="121.99997"
       x="3.0000279"
       y="1032.4822"
       id="rect1154"
       style="opacity:0.57714299;fill:url(#linearGradient4630);stroke-width:1.17547703;filter:url(#filter4584)" />
    <path
       d="M 4.3125,1030.8622 C 4.1209783,1031.1468 4,1031.4722 4,1031.7997 v 0.125 c 0,1.3467 1.784,2.4375 4,2.4375 h 113 c 2.216,0 4,-1.0908 4,-2.4375 v -0.125 c 0,-0.3275 -0.12098,-0.6529 -0.3125,-0.9375 -0.59612,0.8858 -2.01034,-0.5 -3.6875,-0.5 H 8 c -1.6771642,0 -3.0913752,1.3858 -3.6875,0.5 z"
       id="path1156"
       inkscape:connector-curvature="0"
       style="opacity:0.26857102;fill:#b8e6ff;stroke-width:1.17547703;filter:url(#filter4720)" />
    <path
       d="m 52.498583,952.3622 c -3.2463,0 -4.463798,1.6849 -4.463798,4.25626 0,2.55004 -2.059592,4.74372 -4.620974,4.74372 H 5.015625 C 3.8545593,961.36218 3,962.14471 3,963.3778 v 0.65781 58.55779 9.7599 c 0,1.7783 1.279911,3.0089 2.9883106,3.0089 H 121.96875 c 2.13197,0 3.03125,-1.3568 3.03125,-2.9688 v -9.8 -58.55779 -7.0729 c 0,-2.55004 -2.05959,-4.60051 -4.62097,-4.60051 z"
       id="path1158"
       inkscape:connector-curvature="0"
       style="opacity:0.485714;fill:#00ffff;stroke-width:1.17547703;filter:url(#filter5616)" />
    <path
       d="m 3,1008.3622 v 9 h 122 v -9 z"
       id="path1160"
       inkscape:connector-curvature="0"
       style="opacity:0.4;fill:#00438a;stroke-width:1.17547703" />
    <path
       d="m 49.5,952.36218 c -1.932997,0 -3.5,1.567 -3.5,3.5 0,0.16773 0.0084,0.33856 0.03125,0.5 H 47.0625 C 47.0292,956.19944 47,956.03477 47,955.86218 c 0,-1.38071 1.119288,-2.5 2.5,-2.5 0.151347,0 0.293565,0.0367 0.4375,0.0625 0.02014,-0.1817 0.0625,-0.37242 0.0625,-0.5625 0,-0.15779 -0.01728,-0.3166 -0.03125,-0.46875 -0.15181,-0.0201 -0.311445,-0.0313 -0.46875,-0.0313 z"
       id="path1162"
       inkscape:connector-curvature="0"
       style="opacity:0.937143;fill:url(#radialGradient4689);stroke-width:1.17547703" />
    <path
       d="m 124.50616,955.36218 c 0.27358,0 0.49383,0.892 0.49383,2 v 73.99992 c 0,1.108 -0.22025,2 -0.49383,2 -0.27358,0 -0.49382,-0.892 -0.49382,-2 v -73.99992 c 0,-1.108 0.22024,-2 0.49382,-2 z"
       id="path1164"
       inkscape:connector-curvature="0"
       style="opacity:0.40571403;fill:url(#linearGradient4622);stroke-width:1.17547703" />
    <path
       d="m 3.5,962.36218 c 0.277,0 0.5,0.223 0.5,0.5 v 70.00002 c 0,0.277 -0.223,0.5 -0.5,0.5 -0.277,0 -0.5,-0.223 -0.5,-0.5 v -70.00002 c 0,-0.277 0.223,-0.5 0.5,-0.5 z"
       id="path1166"
       inkscape:connector-curvature="0"
       style="opacity:0.59428603;fill:url(#linearGradient4614);stroke-width:1.17547703" />
    <path
       d="m 8.5,12.09375 c -1.2263633,0 -2.50625,1.11436 -2.50625,2.40625 V 17 l 0.1,62.65625 V 103.375 c 0,1.956 1.5657478,3.53125 3.53125,3.53125 h 107.75 c 1.9655,0 3.50719,-1.57539 3.53125,-3.53125 l 1,-81.28125 c 0.0241,-1.955803 -2.05678,-4 -4.03125,-4 H 100.3125 41.03125 C 40.460042,18.088403 39.942847,17.571208 39.9375,17 L 39.90625,15 C 39.895768,14.096 37.817787,12.09375 36,12.09375 Z m 0,0.75 H 36 c 1.173368,0 3.15625,0.95608 3.15625,2.1875 l 0.03125,2 c 0.01554,0.955104 0.888519,1.813284 1.84375,1.8125 h 59.28125 17.5625 c 1.582,0 3.30041,1.692278 3.28125,3.25 l -1,81.28125 c -0.0192,1.55778 -1.21422,2.78125 -2.78125,2.78125 H 9.625 c -1.5670292,0 -2.78125,-1.22335 -2.78125,-2.78125 V 79.65625 L 6.74375,17 v -2.5 c 0,-0.94688 0.8685209,-1.65625 1.75625,-1.65625 z"
       transform="translate(0,924.36218)"
       id="path1168"
       inkscape:connector-curvature="0"
       style="fill:url(#radialGradient4644);stroke-width:1.17547703" />
    <path
       d="M 8.5,11.09375 C 7.2736367,11.09375 6,12.20811 6,13.5 V 16 l 0.03125,19.01875 h 0.75 L 6.75,16 v -2.5 c 0,-0.94688 0.8622709,-1.65625 1.75,-1.65625 H 38 c 1.173368,0 2.15625,0.95608 2.15625,2.1875 l 0.03125,2 c 0.01554,0.9551 0.888519,1.81328 1.84375,1.8125 h 58.28125 17.5625 c 1.582,0 3.30041,1.69228 3.28125,3.25 l -0.1875,5.325 h 0.75 l 0.1875,-5.325 c 0.0241,-1.9558 -2.05678,-4 -4.03125,-4 H 100.3125 42.03125 C 41.460042,17.08875 40.942847,16.57121 40.9375,16 L 40.90625,14 C 40.89577,13.096 39.817787,11.09375 38,11.09375 Z"
       transform="translate(0,924.36218)"
       id="path1170"
       inkscape:connector-curvature="0"
       style="opacity:0.251429;fill:#00ffff;stroke-width:1.17547703" />
    <g
       transform="translate(0,1)"
       id="g1174"
       style="stroke-width:1.17547703;filter:url(#filter4697)">
      <path
         d="m 8.6249803,935.3622 c -1.4497361,0 -2.6249788,1.17524 -2.6249788,2.62498 0,0.12585 0.00633,0.25392 0.023438,0.375 h 0.7734311 c -0.024977,-0.1221 -0.046875,-0.24557 -0.046875,-0.375 0,-1.03553 0.8394598,-1.87498 1.8749853,-1.87498 0.1135053,0 0.2201707,0.0274 0.3281215,0.0469 0.015105,-0.1362 0.046875,-0.27928 0.046875,-0.42184 0,-0.11835 -0.0129,-0.23745 -0.023445,-0.35156 -0.1138504,-0.015 -0.2335823,-0.0236 -0.3515592,-0.0236 z"
         id="path1172"
         inkscape:connector-curvature="0"
         style="opacity:0.937143;fill:url(#radialGradient1739);stroke-width:1.17547703" />
    </g>
    <g
       transform="matrix(-1,0,0,1,43.999979,1)"
       id="g1178"
       style="stroke-width:1.17547703;filter:url(#filter4697)">
      <path
         d="m 6.6249803,935.3622 c -1.4497361,0 -2.6249788,1.17524 -2.6249788,2.62498 0,0.12585 0.00633,0.25392 0.023438,0.375 h 0.7734311 c -0.024977,-0.1221 -0.046875,-0.24557 -0.046875,-0.375 0,-1.03553 0.8394598,-1.87498 1.8749853,-1.87498 0.1135053,0 0.2201707,0.0274 0.3281215,0.0469 0.015105,-0.1362 0.046875,-0.27928 0.046875,-0.42184 0,-0.11835 -0.0129,-0.23745 -0.023445,-0.35156 -0.1138504,-0.015 -0.2335823,-0.0236 -0.3515592,-0.0236 z"
         id="path1176"
         inkscape:connector-curvature="0"
         style="opacity:0.937143;fill:url(#radialGradient4705);stroke-width:1.17547703" />
    </g>
    <g
       transform="matrix(-1,0,0,1,126.99998,7)"
       id="g1182"
       style="stroke-width:1.17547703;filter:url(#filter4697)">
      <path
         d="m 8.6249803,935.3622 c -1.4497361,0 -2.6249788,1.17524 -2.6249788,2.62498 0,0.12585 0.00633,0.25392 0.023438,0.375 h 0.7734311 c -0.024977,-0.1221 -0.046875,-0.24557 -0.046875,-0.375 0,-1.03553 0.8394598,-1.87498 1.8749853,-1.87498 0.1135053,0 0.2201707,0.0274 0.3281215,0.0469 0.015105,-0.1362 0.046875,-0.27928 0.046875,-0.42184 0,-0.11835 -0.0129,-0.23745 -0.023445,-0.35156 -0.1138504,-0.015 -0.2335823,-0.0236 -0.3515592,-0.0236 z"
         id="path1180"
         inkscape:connector-curvature="0"
         style="opacity:0.937143;fill:url(#radialGradient4675);stroke-width:1.17547703" />
    </g>
    <rect
       height="1"
       rx="1.1276587"
       ry="1.2253231"
       width="122"
       x="3"
       y="1017.3622"
       id="rect1184"
       style="opacity:0.10857101;fill:#ffffff;stroke-width:1.17547703" />
    <path
       d="m 3,1008.3622 v 9 h 122 v -9 z"
       id="path1186"
       inkscape:connector-curvature="0"
       style="opacity:0.4;fill:url(#linearGradient3860);stroke-width:1.17547703" />
  </g>
</svg>
